<svg viewBox="0 0 500 500" xmlns="http://www.w3.org/2000/svg">
  <defs>
    <radialGradient id="shadow3" cx="50%" cy="80%">
      <stop offset="0%" style="stop-color:#000;stop-opacity:0.3"/>
      <stop offset="100%" style="stop-color:#000;stop-opacity:0"/>
    </radialGradient>
    <linearGradient id="arroz2" x1="0%" y1="0%" x2="100%" y2="100%">
      <stop offset="0%" style="stop-color:#1a1a1a"/>
      <stop offset="30%" style="stop-color:#2d2d2d"/>
      <stop offset="60%" style="stop-color:#1f1f1f"/>
      <stop offset="100%" style="stop-color:#0f0f0f"/>
    </linearGradient>
  </defs>
  
  <!-- Sombra -->
  <ellipse cx="250" cy="420" rx="170" ry="50" fill="url(#shadow3)"/>
  
  <!-- Plato hondo blanco -->
  <ellipse cx="250" cy="250" r="180" fill="#ffffff" stroke="#ddd" stroke-width="3"/>
  <ellipse cx="250" cy="240" rx="180" ry="70" fill="#fafafa"/>
  
  <!-- Arroz negro base -->
  <ellipse cx="250" cy="260" rx="170" ry="140" fill="url(#arroz2)"/>
  
  <!-- Textura del arroz con grano visible -->
  <circle cx="180" cy="200" r="2.5" fill="#3a3a3a"/>
  <circle cx="210" cy="185" r="2" fill="#3a3a3a"/>
  <circle cx="240" cy="175" r="2.5" fill="#3a3a3a"/>
  <circle cx="270" cy="180" r="2" fill="#3a3a3a"/>
  <circle cx="300" cy="190" r="2.5" fill="#3a3a3a"/>
  <circle cx="160" cy="250" r="2" fill="#3a3a3a"/>
  <circle cx="340" cy="260" r="2.5" fill="#3a3a3a"/>
  <circle cx="180" cy="310" r="2" fill="#3a3a3a"/>
  <circle cx="320" cy="320" r="2" fill="#3a3a3a"/>
  
  <!-- Gambas rojas brillantes -->
  <path d="M 280 150 Q 300 140 320 130" stroke="#d4143f" stroke-width="10" fill="none" stroke-linecap="round" stroke-linejoin="round"/>
  <circle cx="320" cy="130" r="10" fill="#c41e3a"/>
  <circle cx="318" cy="128" r="3" fill="#8b0000"/>
  <path d="M 320 135 L 330 140 L 328 145 Z" fill="#a01a2a"/>
  
  <path d="M 160 290 Q 140 310 120 330" stroke="#d4143f" stroke-width="10" fill="none" stroke-linecap="round"/>
  <circle cx="120" cy="330" r="9" fill="#c41e3a"/>
  <circle cx="122" cy="328" r="3" fill="#8b0000"/>
  
  <path d="M 340 200 Q 360 190 380 180" stroke="#d4143f" stroke-width="9" fill="none" stroke-linecap="round"/>
  <circle cx="380" cy="180" r="9" fill="#c41e3a"/>
  
  <!-- Mejillones oscuros -->
  <ellipse cx="150" cy="160" rx="28" ry="40" fill="#1c2e3f" stroke="#0f1a28" stroke-width="2"/>
  <path d="M 150 155 Q 140 165 150 175 Q 160 165 150 155" fill="#34495e"/>
  <path d="M 150 150 L 155 160 L 150 165" fill="#4a7c99" opacity="0.6"/>
  
  <ellipse cx="340" cy="300" rx="30" ry="42" fill="#1c2e3f" stroke="#0f1a28" stroke-width="2"/>
  <path d="M 340 295 Q 328 308 340 320 Q 352 308 340 295" fill="#34495e"/>
  
  <!-- Anillas de calamar -->
  <circle cx="250" cy="200" r="22" fill="none" stroke="#d4a574" stroke-width="3.5"/>
  <circle cx="250" cy="200" r="16" fill="none" stroke="#d4a574" stroke-width="2.5"/>
  <circle cx="250" cy="200" r="10" fill="none" stroke="#d4a574" stroke-width="1.5"/>
  
  <circle cx="200" cy="270" r="20" fill="none" stroke="#d4a574" stroke-width="3"/>
  <circle cx="200" cy="270" r="14" fill="none" stroke="#d4a574" stroke-width="2"/>
  
  <circle cx="280" cy="290" r="18" fill="none" stroke="#d4a574" stroke-width="3"/>
  <circle cx="280" cy="290" r="12" fill="none" stroke="#d4a574" stroke-width="2"/>
  
  <!-- Limón fresco -->
  <circle cx="310" cy="140" r="16" fill="#FFD700"/>
  <ellipse cx="312" cy="138" rx="4" ry="3" fill="#FFC700"/>
  <circle cx="308" cy="140" r="2" fill="#FFC700"/>
  <path d="M 310 125 Q 312 122 314 125" fill="#2d5016" stroke="#1a3a0f" stroke-width="0.5"/>
  
  <!-- Perejil decorativo -->
  <path d="M 170 130 Q 165 135 168 145 Q 172 140 175 145" fill="#2d5016" opacity="0.9"/>
  <path d="M 175 125 Q 170 130 173 140" fill="#3a7a2f" opacity="0.7"/>
  
  <!-- Brillo de aceite -->
  <ellipse cx="200" cy="180" rx="40" ry="25" fill="#ffffff" opacity="0.1"/>
  <ellipse cx="300" cy="230" rx="35" ry="20" fill="#ffffff" opacity="0.08"/>
</svg>