<svg viewBox="0 0 500 500" xmlns="http://www.w3.org/2000/svg">
  <defs>
    <radialGradient id="shadow4" cx="50%" cy="80%">
      <stop offset="0%" style="stop-color:#000;stop-opacity:0.3"/>
      <stop offset="100%" style="stop-color:#000;stop-opacity:0"/>
    </radialGradient>
    <linearGradient id="pasta2" x1="0%" y1="0%" x2="100%" y2="100%">
      <stop offset="0%" style="stop-color:#f4d4a8"/>
      <stop offset="50%" style="stop-color:#e6b373"/>
      <stop offset="100%" style="stop-color:#d4a05a"/>
    </linearGradient>
    <linearGradient id="salsa2" x1="0%" y1="0%" x2="100%" y2="100%">
      <stop offset="0%" style="stop-color:#fff5e6"/>
      <stop offset="50%" style="stop-color:#ffe4b5"/>
      <stop offset="100%" style="stop-color:#ffcc99"/>
    </linearGradient>
  </defs>
  
  <!-- Sombra -->
  <ellipse cx="250" cy="420" rx="165" ry="48" fill="url(#shadow4)"/>
  
  <!-- Plato blanco con borde -->
  <circle cx="250" cy="240" r="180" fill="#ffffff" stroke="#e0e0e0" stroke-width="3"/>
  
  <!-- Base de pasta cremosa -->
  <ellipse cx="250" cy="260" rx="165" ry="130" fill="url(#pasta2)"/>
  
  <!-- Salsa cremosa -->
  <ellipse cx="250" cy="250" rx="160" ry="125" fill="url(#salsa2)"/>
  
  <!-- Espaguetis largos con movimiento -->
  <path d="M 140 180 Q 170 160 200 180 Q 230 160 260 180 Q 290 160 320 180 Q 340 175 360 180" stroke="#daa520" stroke-width="3" fill="none" stroke-linecap="round" opacity="0.9"/>
  <path d="M 150 210 Q 180 195 210 220 Q 240 200 270 220 Q 300 200 340 220" stroke="#d4a05a" stroke-width="2.5" fill="none" stroke-linecap="round"/>
  <path d="M 160 260 Q 190 250 220 270 Q 250 255 280 270 Q 310 250 340 265" stroke="#c89050" stroke-width="2.5" fill="none" stroke-linecap="round"/>
  <path d="M 170 300 Q 200 290 230 310 Q 260 295 290 310" stroke="#b8784a" stroke-width="2" fill="none" stroke-linecap="round"/>
  
  <!-- Yema de huevo cremosa -->
  <ellipse cx="250" cy="180" rx="45" ry="50" fill="#fff9e6"/>
  <ellipse cx="250" cy="177" rx="42" ry="48" fill="#fffaed"/>
  
  <!-- Brillo en la yema -->
  <ellipse cx="265" cy="160" rx="12" ry="15" fill="#ffffff" opacity="0.7"/>
  <ellipse cx="240" cy="195" rx="8" ry="10" fill="#ffffff" opacity="0.4"/>
  
  <!-- Panceta crujiente con textura -->
  <rect x="140" y="145" width="65" height="10" fill="#8b4513" rx="3"/>
  <rect x="142" y="147" width="61" height="6" fill="#a0522d"/>
  <ellipse cx="160" cy="148" rx="8" ry="4" fill="#8b3a1a" opacity="0.5"/>
  <ellipse cx="190" cy="149" rx="6" ry="3" fill="#8b3a1a" opacity="0.4"/>
  
  <rect x="250" y="320" width="70" height="10" fill="#8b4513" rx="3"/>
  <rect x="252" y="322" width="66" height="6" fill="#a0522d"/>
  
  <!-- Queso parmesano rallado abundante -->
  <circle cx="160" cy="100" r="3" fill="#e6d4b8"/>
  <circle cx="185" cy="95" r="3" fill="#e6d4b8"/>
  <circle cx="210" cy="92" r="3" fill="#e6d4b8"/>
  <circle cx="235" cy="90" r="3" fill="#e6d4b8"/>
  <circle cx="260" cy="85" r="3" fill="#e6d4b8"/>
  <circle cx="285" cy="92" r="3" fill="#e6d4b8"/>
  <circle cx="310" cy="100" r="3" fill="#e6d4b8"/>
  <circle cx="175" cy="280" r="2.5" fill="#e6d4b8"/>
  <circle cx="225" cy="295" r="2.5" fill="#e6d4b8"/>
  <circle cx="285" cy="300" r="2.5" fill="#e6d4b8"/>
  <circle cx="320" cy="285" r="2.5" fill="#e6d4b8"/>
  
  <!-- Pimienta negra fresca molida -->
  <circle cx="190" cy="190" r="2" fill="#1a1a1a"/>
  <circle cx="220" cy="200" r="2" fill="#1a1a1a"/>
  <circle cx="260" cy="210" r="2" fill="#1a1a1a"/>
  <circle cx="290" cy="200" r="2" fill="#1a1a1a"/>
  <circle cx="310" cy="230" r="2" fill="#1a1a1a"/>
  
  <!-- Perejil fresco con detalle -->
  <path d="M 330 210 Q 340 200 350 210 Q 345 220 335 220" fill="#2d5016" stroke="#1a3a0f" stroke-width="0.5"/>
  <path d="M 340 215 Q 350 208 355 218" fill="#3a7a2f"/>
  
  <!-- Aceite de oliva brillo -->
  <ellipse cx="180" cy="170" rx="25" ry="15" fill="#fff8dc" opacity="0.3"/>
  <ellipse cx="320" cy="240" rx="20" ry="12" fill="#fff8dc" opacity="0.25"/>
</svg>