<svg viewBox="0 0 500 500" xmlns="http://www.w3.org/2000/svg">
  <defs>
    <radialGradient id="shadow5" cx="50%" cy="80%">
      <stop offset="0%" style="stop-color:#000;stop-opacity:0.3"/>
      <stop offset="100%" style="stop-color:#000;stop-opacity:0"/>
    </radialGradient>
    <linearGradient id="pescado2" x1="0%" y1="0%" x2="100%" y2="100%">
      <stop offset="0%" style="stop-color:#d4745f"/>
      <stop offset="50%" style="stop-color:#a05045"/>
      <stop offset="100%" style="stop-color:#7a3a2a"/>
    </linearGradient>
  </defs>
  
  <!-- Sombra -->
  <ellipse cx="250" cy="420" rx="165" ry="48" fill="url(#shadow5)"/>
  
  <!-- Plato blanco con borde -->
  <circle cx="250" cy="240" r="180" fill="#ffffff" stroke="#e0e0e0" stroke-width="3"/>
  
  <!-- Salsa ligera base -->
  <ellipse cx="250" cy="280" rx="155" ry="90" fill="#fff8dc" opacity="0.6"/>
  
  <!-- Filete de pez espada/salmón -->
  <ellipse cx="250" cy="200" rx="120" ry="70" fill="url(#pescado2)"/>
  <ellipse cx="250" cy="197" rx="118" ry="68" fill="#b85045"/>
  
  <!-- Líneas de parrilla realistas -->
  <line x1="150" y1="190" x2="350" y2="190" stroke="#5a2a1a" stroke-width="2.5" opacity="0.7"/>
  <line x1="148" y1="202" x2="352" y2="202" stroke="#5a2a1a" stroke-width="2" opacity="0.6"/>
  <line x1="150" y1="214" x2="350" y2="214" stroke="#5a2a1a" stroke-width="2" opacity="0.5"/>
  
  <!-- Escamas/textura del pescado -->
  <ellipse cx="170" cy="185" rx="12" ry="8" fill="#d4765f" opacity="0.4"/>
  <ellipse cx="220" cy="175" rx="10" ry="7" fill="#d4765f" opacity="0.4"/>
  <ellipse cx="280" cy="180" rx="10" ry="7" fill="#d4765f" opacity="0.4"/>
  <ellipse cx="330" cy="195" rx="12" ry="8" fill="#d4765f" opacity="0.4"/>
  <ellipse cx="200" cy="210" rx="9" ry="6" fill="#d4765f" opacity="0.3"/>
  <ellipse cx="310" cy="215" rx="9" ry="6" fill="#d4765f" opacity="0.3"/>
  
  <!-- Ojo del pescado -->
  <circle cx="135" cy="200" r="6" fill="#ffffff"/>
  <circle cx="135" cy="200" r="4" fill="#ffff99"/>
  <circle cx="135" cy="200" r="2.5" fill="#1a1a1a"/>
  
  <!-- Espárragos frescos -->
  <line x1="100" cy="270" x2="75" y2="360" stroke="#2d5016" stroke-width="4" stroke-linecap="round"/>
  <circle cx="75" cy="360" r="4" fill="#4a7c24"/>
  <ellipse cx="80" cy="350" rx="3" ry="5" fill="#3a7a2f"/>
  <ellipse cx="70" cy="355" rx="3" ry="5" fill="#3a7a2f"/>
  
  <line x1="400" y1="280" x2="430" y2="370" stroke="#2d5016" stroke-width="4" stroke-linecap="round"/>
  <circle cx="430" cy="370" r="4" fill="#4a7c24"/>
  <ellipse cx="420" cy="360" rx="3" ry="5" fill="#3a7a2f"/>
  
  <!-- Limón fresco cortado -->
  <circle cx="150" cy="300" r="18" fill="#FFD700"/>
  <circle cx="150" cy="300" r="14" fill="#ffe4b5"/>
  <line x1="150" y1="290" x2="150" y2="310" stroke="#FFC700" stroke-width="1"/>
  <line x1="140" y1="300" x2="160" y2="300" stroke="#FFC700" stroke-width="1"/>
  <circle cx="150" cy="300" r="4" fill="#FFD700" opacity="0.5"/>
  <circle cx="148" cy="298" r="2" fill="#FFC700"/>
  
  <!-- Hierbas aromáticas -->
  <path d="M 280 280 Q 285 275 290 285 Q 292 280 295 290" fill="#2d5016"/>
  <path d="M 320 310 Q 325 305 330 315" fill="#3a7a2f"/>
  
  <!-- Sal marina visible -->
  <circle cx="200" cy="180" r="1.5" fill="#f0f0f0"/>
  <circle cx="230" cy="220" r="1.5" fill="#f0f0f0"/>
  <circle cx="280" cy="225" r="1.5" fill="#f0f0f0"/>
  
  <!-- Brillo de aceite de oliva -->
  <ellipse cx="200" cy="190" rx="25" ry="15" fill="#fff8dc" opacity="0.25"/>
  <ellipse cx="300" cy="220" rx="20" ry="12" fill="#fff8dc" opacity="0.2"/>
</svg>