<svg viewBox="0 0 500 500" xmlns="http://www.w3.org/2000/svg">
  <defs>
    <radialGradient id="shadow6" cx="50%" cy="80%">
      <stop offset="0%" style="stop-color:#000;stop-opacity:0.3"/>
      <stop offset="100%" style="stop-color:#000;stop-opacity:0"/>
    </radialGradient>
    <linearGradient id="chocolate2" x1="0%" y1="0%" x2="100%" y2="100%">
      <stop offset="0%" style="stop-color:#5c3317"/>
      <stop offset="50%" style="stop-color:#3d230f"/>
      <stop offset="100%" style="stop-color:#2a1a08"/>
    </linearGradient>
    <linearGradient id="crema2" x1="0%" y1="0%" x2="100%" y2="100%">
      <stop offset="0%" style="stop-color:#fff9f0"/>
      <stop offset="50%" style="stop-color:#f5ede4"/>
      <stop offset="100%" style="stop-color:#ede4d3"/>
    </linearGradient>
  </defs>
  
  <!-- Sombra -->
  <ellipse cx="250" cy="420" rx="155" ry="45" fill="url(#shadow6)"/>
  
  <!-- Plato blanco -->
  <circle cx="250" cy="240" r="175" fill="#ffffff" stroke="#ddd" stroke-width="3"/>
  
  <!-- Bizcocho de chocolate (capa inferior) -->
  <ellipse cx="250" cy="290" rx="130" ry="80" fill="url(#chocolate2)"/>
  
  <!-- Segunda capa de bizcocho -->
  <ellipse cx="250" cy="255" rx="130" ry="75" fill="#5c3317"/>
  
  <!-- Crema batida abundante -->
  <path d="M 130 150 Q 140 130 160 140 Q 175 125 190 140 Q 205 120 220 135 Q 240 115 260 130 Q 280 115 300 135 Q 320 120 335 145 Q 350 135 370 155" fill="url(#crema2)"/>
  <path d="M 135 155 Q 155 140 175 150 Q 200 135 225 150 Q 250 140 275 155 Q 300 140 325 155 Q 345 145 365 160" fill="#fffbf7" opacity="0.7"/>
  <path d="M 140 160 Q 165 150 190 160 Q 215 150 240 160 Q 265 150 290 160 Q 315 150 350 165" fill="#fffcfa" opacity="0.4"/>
  
  <!-- Fresas frescas con brillo -->
  <ellipse cx="120" cy="100" rx="18" ry="22" fill="#ff1744"/>
  <ellipse cx="117" cy="97" rx="16" ry="20" fill="#dc143c"/>
  <path d="M 115 80 L 120 70 L 125 80" fill="#2d5016"/>
  <ellipse cx="122" cy="118" rx="5" ry="6" fill="#ffd700" opacity="0.6"/>
  
  <ellipse cx="180" cy="85" rx="17" ry="21" fill="#ff1744"/>
  <ellipse cx="177" cy="82" rx="15" ry="19" fill="#dc143c"/>
  <path d="M 175 65 L 180 55 L 185 65" fill="#2d5016"/>
  
  <ellipse cx="310" cy="95" rx="18" ry="22" fill="#ff1744"/>
  <ellipse cx="307" cy="92" rx="16" ry="20" fill="#dc143c"/>
  <path d="M 305 75 L 310 65 L 315 75" fill="#2d5016"/>
  
  <!-- Frambuesas oscuras -->
  <circle cx="150" cy="70" r="8" fill="#c71585"/>
  <circle cx="147" cy="67" r="6" fill="#d81b60"/>
  <circle cx="153" cy="65" r="6" fill="#d81b60"/>
  <circle cx="150" cy="74" r="4" fill="#b5156b"/>
  
  <circle cx="260" cy="60" r="8" fill="#c71585"/>
  <circle cx="257" cy="57" r="6" fill="#d81b60"/>
  <circle cx="263" cy="55" r="6" fill="#d81b60"/>
  
  <!-- Glaseado de ganache -->
  <ellipse cx="250" cy="230" rx="125" ry="65" fill="#3d230f" opacity="0.3"/>
  <path d="M 150 210 Q 185 200 250 205 Q 315 200 350 215" fill="#2a1a08" opacity="0.4"/>
  
  <!-- Brillo del glaseado -->
  <ellipse cx="210" cy="215" rx="28" ry="18" fill="#ffffff" opacity="0.25"/>
  <ellipse cx="290" cy="225" rx="24" ry="15" fill="#ffffff" opacity="0.2"/>
  
  <!-- Menta fresca -->
  <ellipse cx="140" cy="155" rx="10" ry="8" fill="#2d5016"/>
  <ellipse cx="146" cy="150" rx="8" ry="6" fill="#3a7a2f"/>
  
  <ellipse cx="340" cy="160" rx="10" ry="8" fill="#2d5016"/>
  <ellipse cx="346" cy="155" rx="8" ry="6" fill="#3a7a2f"/>
  
  <!-- Azúcar cristalizado/Polvo de cacao -->
  <circle cx="170" cy="125" r="2" fill="#f5deb3"/>
  <circle cx="195" cy="120" r="2" fill="#f5deb3"/>
  <circle cx="220" cy="115" r="2" fill="#f5deb3"/>
  <circle cx="250" cy="108" r="2" fill="#f5deb3"/>
  <circle cx="280" cy="115" r="2" fill="#f5deb3"/>
  <circle cx="310" cy="125" r="2" fill="#f5deb3"/>
  
  <!-- Brillo adicional en la crema -->
  <ellipse cx="200" cy="140" rx="15" ry="10" fill="#ffffff" opacity="0.15"/>
  <ellipse cx="290" cy="145" rx="12" ry="8" fill="#ffffff" opacity="0.12"/>
</svg>